<svg xmlns="http://www.w3.org/2000/svg" xmlns:xlink="http://www.w3.org/1999/xlink" width="500" zoomAndPan="magnify" viewBox="0 0 375 374.999991" height="500" preserveAspectRatio="xMidYMid meet" version="1.2"><defs><clipPath id="7f23200cdf"><path d="M 21.117188 37.5 L 351 37.5 L 351 337.5 L 21.117188 337.5 Z M 21.117188 37.5 "/></clipPath></defs><g id="6c8aaa7a4f"><g clip-rule="nonzero" clip-path="url(#7f23200cdf)"><path style=" stroke:none;fill-rule:evenodd;fill:#5f6fff;fill-opacity:1;" d="M 35.34375 175.753906 C 43.199219 175.753906 49.570312 182.121094 49.570312 189.980469 C 49.570312 197.835938 43.199219 204.210938 35.34375 204.210938 C 27.492188 204.210938 21.117188 197.835938 21.117188 189.980469 C 21.117188 182.128906 27.492188 175.753906 35.34375 175.753906 M 44.394531 95.75 C 51.109375 95.75 56.554688 101.1875 56.554688 107.90625 C 56.554688 114.621094 51.109375 120.066406 44.394531 120.066406 C 37.683594 120.066406 32.238281 114.621094 32.238281 107.90625 C 32.238281 101.1875 37.683594 95.75 44.394531 95.75 Z M 96.59375 132.609375 C 107.167969 132.609375 115.746094 141.191406 115.746094 151.765625 C 115.746094 162.34375 107.167969 170.914062 96.59375 170.914062 C 86.015625 170.914062 77.4375 162.335938 77.4375 151.765625 C 77.441406 141.183594 86.015625 132.609375 96.59375 132.609375 Z M 118.71875 58.910156 C 128.507812 58.910156 136.445312 66.84375 136.445312 76.632812 C 136.445312 86.417969 128.507812 94.355469 118.71875 94.355469 C 108.933594 94.355469 101.003906 86.417969 101.003906 76.632812 C 101.003906 66.84375 108.933594 58.910156 118.71875 58.910156 Z M 223.613281 71.386719 L 258.570312 122.664062 L 259.972656 122.632812 C 277.570312 122.632812 291.835938 136.90625 291.835938 154.496094 C 291.835938 172.089844 277.570312 186.363281 259.972656 186.363281 C 251.695312 186.363281 243.882812 183.160156 238.035156 177.605469 L 218.910156 184.539062 C 216.90625 191.324219 212.242188 196.953125 206.152344 200.242188 C 211.171875 201.914062 215.574219 205.117188 218.691406 209.410156 L 242.65625 209.308594 C 247.261719 203.292969 254.484375 199.597656 262.316406 199.597656 C 275.984375 199.597656 287.074219 210.683594 287.074219 224.351562 C 287.074219 238.023438 275.988281 249.109375 262.316406 249.109375 C 254.523438 249.109375 247.335938 245.453125 242.722656 239.492188 L 218.46875 239.59375 C 214.636719 244.703125 208.984375 248.214844 202.644531 249.355469 L 193.585938 268.761719 C 194.609375 271.429688 195.136719 274.269531 195.136719 277.160156 C 195.136719 284.632812 191.648438 291.292969 186.210938 295.601562 C 201.890625 300.046875 215.96875 309.226562 226.414062 322.066406 L 278.066406 322.066406 L 296.773438 285.140625 C 322.542969 278.671875 340.722656 279.613281 331.371094 248.269531 C 339.683594 240.320312 344.816406 237.421875 335.453125 230.476562 C 339.351562 228.46875 340.585938 226.519531 341.144531 223.839844 L 334.375 211.023438 C 347.917969 203.261719 354.117188 195.515625 349.339844 189.992188 L 318.457031 154.539062 C 313.214844 89.90625 270.898438 60.605469 225.519531 58.125 C 225.566406 58.847656 225.59375 59.566406 225.59375 60.300781 C 225.59375 64.105469 224.917969 67.851562 223.613281 71.386719 Z M 216.378906 57.984375 C 215.21875 46.503906 205.519531 37.535156 193.730469 37.535156 C 181.15625 37.535156 170.960938 47.734375 170.960938 60.300781 C 170.960938 62.761719 171.355469 65.132812 172.078125 67.351562 C 175.042969 76.472656 183.617188 83.070312 193.730469 83.070312 C 197.542969 83.070312 201.128906 82.136719 204.28125 80.484375 L 243.816406 138.464844 C 239.734375 142.582031 237.210938 148.246094 237.210938 154.492188 L 237.234375 155.457031 L 207.179688 166.355469 C 204.019531 162.367188 199.136719 159.800781 193.652344 159.800781 C 184.132812 159.800781 176.402344 167.527344 176.402344 177.054688 C 176.402344 186.578125 184.132812 194.296875 193.652344 194.296875 C 202.933594 194.296875 210.503906 186.960938 210.882812 177.773438 L 240.882812 166.890625 C 244.945312 173.132812 251.976562 177.261719 259.972656 177.261719 C 272.546875 177.261719 282.742188 167.058594 282.742188 154.492188 C 282.742188 141.917969 272.554688 131.722656 259.972656 131.722656 C 257.992188 131.722656 256.070312 131.976562 254.242188 132.449219 L 213.152344 72.1875 C 215.277344 68.722656 216.496094 64.652344 216.496094 60.300781 C 216.496094 59.519531 216.457031 58.746094 216.378906 57.984375 Z M 163.527344 265.246094 C 159.722656 267.835938 157.222656 272.207031 157.222656 277.15625 C 157.222656 284.625 162.910156 290.773438 170.183594 291.5 C 170.664062 291.546875 171.140625 291.570312 171.632812 291.570312 C 179.59375 291.570312 186.046875 285.117188 186.046875 277.15625 C 186.046875 274.101562 185.09375 271.265625 183.472656 268.933594 L 196.707031 240.59375 L 198.148438 240.65625 C 204.972656 240.65625 210.820312 236.464844 213.25 230.511719 L 247.867188 230.363281 C 250.222656 236.027344 255.8125 240.003906 262.324219 240.003906 C 270.972656 240.003906 277.980469 232.996094 277.980469 224.347656 C 277.980469 215.703125 270.972656 208.691406 262.324219 208.691406 C 255.789062 208.691406 250.195312 212.691406 247.84375 218.378906 L 213.390625 218.527344 C 211.046875 212.398438 205.105469 208.042969 198.15625 208.042969 C 192.773438 208.042969 188 210.652344 185.027344 214.675781 L 156.5 199.054688 C 156.796875 197.703125 156.949219 196.296875 156.949219 194.859375 C 156.949219 188.726562 154.179688 183.246094 149.820312 179.605469 L 161.753906 150.101562 C 162.996094 150.257812 164.261719 150.347656 165.535156 150.347656 C 181.828125 150.347656 195.027344 137.140625 195.027344 120.851562 C 195.027344 104.5625 181.820312 91.359375 165.535156 91.359375 C 149.25 91.359375 136.046875 104.5625 136.046875 120.851562 C 136.046875 131.605469 141.800781 141.011719 150.398438 146.167969 L 138.71875 175.050781 L 137.074219 174.980469 C 126.097656 174.980469 117.195312 183.875 117.195312 194.859375 C 117.195312 205.832031 126.097656 214.730469 137.074219 214.730469 C 142.277344 214.730469 147.007812 212.730469 150.546875 209.464844 L 182.011719 226.695312 C 182.480469 229.949219 183.90625 232.878906 185.992188 235.21875 L 173.105469 262.824219 L 171.636719 262.75 C 168.628906 262.746094 165.835938 263.667969 163.527344 265.246094 Z M 193.644531 150.710938 C 199.371094 150.710938 204.851562 152.5625 209.34375 155.894531 L 228.601562 148.910156 C 229.277344 145.109375 230.632812 141.476562 232.601562 138.175781 L 200.710938 91.402344 C 198.429688 91.910156 196.09375 92.175781 193.730469 92.175781 L 191.238281 92.078125 C 199.140625 99.144531 204.117188 109.414062 204.117188 120.851562 C 204.117188 133.0625 198.441406 143.949219 189.585938 151.027344 C 190.910156 150.8125 192.265625 150.710938 193.644531 150.710938 Z M 163.230469 304.082031 C 172.378906 304.082031 179.789062 311.492188 179.789062 320.640625 C 179.789062 329.785156 172.378906 337.195312 163.230469 337.195312 C 154.09375 337.195312 146.675781 329.785156 146.675781 320.640625 C 146.675781 311.492188 154.085938 304.082031 163.230469 304.082031 Z M 111.730469 278.992188 C 120.875 278.992188 128.285156 286.402344 128.285156 295.546875 C 128.285156 304.691406 120.875 312.105469 111.730469 312.105469 C 102.585938 312.105469 95.171875 304.691406 95.171875 295.546875 C 95.171875 286.402344 102.585938 278.992188 111.730469 278.992188 Z M 86.148438 221.546875 C 93.859375 221.546875 100.113281 227.800781 100.113281 235.511719 C 100.113281 243.226562 93.859375 249.476562 86.148438 249.476562 C 78.429688 249.476562 72.183594 243.21875 72.183594 235.511719 C 72.183594 227.792969 78.433594 221.546875 86.148438 221.546875 Z M 86.148438 221.546875 "/></g></g></svg>