<svg xmlns="http://www.w3.org/2000/svg" xmlns:xlink="http://www.w3.org/1999/xlink" width="3000" zoomAndPan="magnify" viewBox="0 0 2250 675.000002" height="900" preserveAspectRatio="xMidYMid meet" version="1.2"><defs><clipPath id="ca326241fc"><path d="M 69.0625 34.230469 L 622 34.230469 L 622 535.988281 L 69.0625 535.988281 Z M 69.0625 34.230469 "/></clipPath></defs><g id="577cb430f3"><g clip-rule="nonzero" clip-path="url(#ca326241fc)"><path style=" stroke:none;fill-rule:evenodd;fill:#5f6fff;fill-opacity:1;" d="M 92.878906 265.691406 C 106.035156 265.691406 116.695312 276.351562 116.695312 289.507812 C 116.695312 302.664062 106.035156 313.332031 92.878906 313.332031 C 79.734375 313.332031 69.0625 302.664062 69.0625 289.507812 C 69.0625 276.363281 79.734375 265.691406 92.878906 265.691406 M 108.035156 131.746094 C 119.277344 131.746094 128.390625 140.851562 128.390625 152.101562 C 128.390625 163.34375 119.277344 172.457031 108.035156 172.457031 C 96.792969 172.457031 87.679688 163.34375 87.679688 152.101562 C 87.679688 140.851562 96.792969 131.746094 108.035156 131.746094 Z M 195.421875 193.460938 C 213.128906 193.460938 227.492188 207.824219 227.492188 225.53125 C 227.492188 243.238281 213.128906 257.59375 195.421875 257.59375 C 177.714844 257.59375 163.351562 243.230469 163.351562 225.53125 C 163.359375 207.816406 177.714844 193.460938 195.421875 193.460938 Z M 232.46875 70.070312 C 248.851562 70.070312 262.140625 83.351562 262.140625 99.746094 C 262.140625 116.128906 248.851562 129.417969 232.46875 129.417969 C 216.085938 129.417969 202.804688 116.128906 202.804688 99.746094 C 202.804688 83.351562 216.085938 70.070312 232.46875 70.070312 Z M 408.082031 90.960938 L 466.605469 176.808594 L 468.953125 176.757812 C 498.414062 176.757812 522.296875 200.652344 522.296875 230.105469 C 522.296875 259.554688 498.414062 283.457031 468.953125 283.457031 C 455.09375 283.457031 442.015625 278.09375 432.226562 268.792969 L 400.203125 280.402344 C 396.851562 291.757812 389.039062 301.183594 378.84375 306.691406 C 387.25 309.484375 394.617188 314.851562 399.835938 322.042969 L 439.957031 321.867188 C 447.671875 311.796875 459.761719 305.609375 472.878906 305.609375 C 495.757812 305.609375 514.324219 324.167969 514.324219 347.054688 C 514.324219 369.945312 495.765625 388.5 472.878906 388.5 C 459.828125 388.5 447.796875 382.382812 440.074219 372.398438 L 399.46875 372.574219 C 393.050781 381.125 383.589844 387.003906 372.976562 388.917969 L 357.8125 421.402344 C 359.523438 425.867188 360.402344 430.625 360.402344 435.464844 C 360.402344 447.972656 354.5625 459.128906 345.457031 466.335938 C 371.710938 473.78125 395.285156 489.148438 412.769531 510.644531 L 499.246094 510.644531 L 530.5625 448.824219 C 573.707031 438 604.144531 439.574219 588.488281 387.101562 C 602.40625 373.789062 610.996094 368.9375 595.320312 357.3125 C 601.84375 353.949219 603.914062 350.679688 604.851562 346.195312 L 593.511719 324.738281 C 616.1875 311.746094 626.570312 298.777344 618.566406 289.527344 L 566.867188 230.171875 C 558.089844 121.964844 487.242188 72.914062 411.269531 68.757812 C 411.347656 69.964844 411.394531 71.175781 411.394531 72.402344 C 411.394531 78.769531 410.265625 85.042969 408.082031 90.960938 Z M 395.96875 68.527344 C 394.027344 49.300781 377.789062 34.289062 358.050781 34.289062 C 337 34.289062 319.933594 51.359375 319.933594 72.402344 C 319.933594 76.519531 320.589844 80.492188 321.796875 84.203125 C 326.765625 99.472656 341.117188 110.523438 358.050781 110.523438 C 364.433594 110.523438 370.433594 108.957031 375.710938 106.191406 L 441.902344 203.261719 C 435.066406 210.152344 430.84375 219.636719 430.84375 230.09375 L 430.882812 231.707031 L 380.5625 249.957031 C 375.277344 243.277344 367.097656 238.984375 357.917969 238.984375 C 341.980469 238.984375 329.035156 251.917969 329.035156 267.867188 C 329.035156 283.816406 341.980469 296.738281 357.917969 296.738281 C 373.460938 296.738281 386.128906 284.453125 386.769531 269.074219 L 436.992188 250.855469 C 443.796875 261.304688 455.566406 268.214844 468.953125 268.214844 C 490.003906 268.214844 507.074219 251.136719 507.074219 230.09375 C 507.074219 209.042969 490.015625 191.972656 468.953125 191.972656 C 465.640625 191.972656 462.421875 192.398438 459.355469 193.191406 L 390.566406 92.304688 C 394.125 86.503906 396.164062 79.6875 396.164062 72.402344 C 396.164062 71.097656 396.097656 69.800781 395.96875 68.527344 Z M 307.484375 415.515625 C 301.113281 419.855469 296.929688 427.171875 296.929688 435.457031 C 296.929688 447.964844 306.449219 458.257812 318.628906 459.476562 C 319.429688 459.550781 320.230469 459.589844 321.054688 459.589844 C 334.382812 459.589844 345.1875 448.785156 345.1875 435.457031 C 345.1875 430.34375 343.59375 425.597656 340.878906 421.691406 L 363.03125 374.246094 L 365.445312 374.351562 C 376.871094 374.351562 386.664062 367.335938 390.730469 357.367188 L 448.6875 357.117188 C 452.628906 366.597656 461.984375 373.257812 472.886719 373.257812 C 487.367188 373.257812 499.101562 361.523438 499.101562 347.046875 C 499.101562 332.578125 487.367188 320.832031 472.886719 320.832031 C 461.945312 320.832031 452.582031 327.53125 448.648438 337.050781 L 390.964844 337.304688 C 387.039062 327.039062 377.09375 319.75 365.457031 319.75 C 356.449219 319.75 348.453125 324.121094 343.476562 330.855469 L 295.71875 304.703125 C 296.210938 302.441406 296.472656 300.082031 296.472656 297.675781 C 296.472656 287.410156 291.835938 278.238281 284.535156 272.140625 L 304.515625 222.75 C 306.59375 223.007812 308.710938 223.152344 310.847656 223.152344 C 338.121094 223.152344 360.21875 201.050781 360.21875 173.773438 C 360.21875 146.507812 338.113281 124.402344 310.847656 124.402344 C 283.578125 124.402344 261.476562 146.507812 261.476562 173.773438 C 261.476562 191.78125 271.113281 207.523438 285.503906 216.15625 L 265.949219 264.511719 L 263.195312 264.398438 C 244.820312 264.398438 229.917969 279.292969 229.917969 297.675781 C 229.917969 316.050781 244.820312 330.945312 263.195312 330.945312 C 271.902344 330.945312 279.828125 327.597656 285.753906 322.128906 L 338.433594 350.980469 C 339.214844 356.421875 341.601562 361.332031 345.089844 365.246094 L 323.519531 411.464844 L 321.0625 411.339844 C 316.027344 411.332031 311.347656 412.878906 307.484375 415.515625 Z M 357.90625 223.761719 C 367.496094 223.761719 376.667969 226.867188 384.1875 232.441406 L 416.433594 220.746094 C 417.5625 214.386719 419.835938 208.308594 423.128906 202.777344 L 369.738281 124.46875 C 365.921875 125.320312 362.003906 125.765625 358.050781 125.765625 L 353.878906 125.601562 C 367.109375 137.429688 375.441406 154.625 375.441406 173.773438 C 375.441406 194.214844 365.941406 212.445312 351.113281 224.292969 C 353.324219 223.9375 355.597656 223.761719 357.90625 223.761719 Z M 306.988281 480.535156 C 322.300781 480.535156 334.710938 492.945312 334.710938 508.257812 C 334.710938 523.566406 322.300781 535.976562 306.988281 535.976562 C 291.6875 535.976562 279.269531 523.566406 279.269531 508.257812 C 279.269531 492.945312 291.679688 480.535156 306.988281 480.535156 Z M 220.765625 438.53125 C 236.074219 438.53125 248.484375 450.941406 248.484375 466.25 C 248.484375 481.5625 236.074219 493.972656 220.765625 493.972656 C 205.453125 493.972656 193.042969 481.5625 193.042969 466.25 C 193.042969 450.941406 205.453125 438.53125 220.765625 438.53125 Z M 177.9375 342.359375 C 190.847656 342.359375 201.316406 352.824219 201.316406 365.738281 C 201.316406 378.652344 190.847656 389.121094 177.9375 389.121094 C 165.011719 389.121094 154.554688 378.644531 154.554688 365.738281 C 154.554688 352.816406 165.023438 342.359375 177.9375 342.359375 Z M 177.9375 342.359375 "/></g><g style="fill:#5f6fff;fill-opacity:1;"><g transform="translate(704.510494, 386.486958)"><path style="stroke:none" d="M 9.578125 -102.125 C 9.578125 -122.238281 13.925781 -140.175781 22.625 -155.9375 C 31.332031 -171.695312 43.46875 -183.976562 59.03125 -192.78125 C 74.601562 -201.582031 92.253906 -205.984375 111.984375 -205.984375 C 136.160156 -205.984375 156.851562 -199.597656 174.0625 -186.828125 C 191.28125 -174.066406 202.789062 -156.660156 208.59375 -134.609375 L 154.046875 -134.609375 C 149.984375 -143.117188 144.226562 -149.597656 136.78125 -154.046875 C 129.34375 -158.492188 120.882812 -160.71875 111.40625 -160.71875 C 96.125 -160.71875 83.742188 -155.398438 74.265625 -144.765625 C 64.785156 -134.128906 60.046875 -119.914062 60.046875 -102.125 C 60.046875 -84.320312 64.785156 -70.101562 74.265625 -59.46875 C 83.742188 -48.832031 96.125 -43.515625 111.40625 -43.515625 C 120.882812 -43.515625 129.34375 -45.738281 136.78125 -50.1875 C 144.226562 -54.632812 149.984375 -61.113281 154.046875 -69.625 L 208.59375 -69.625 C 202.789062 -47.570312 191.28125 -30.210938 174.0625 -17.546875 C 156.851562 -4.878906 136.160156 1.453125 111.984375 1.453125 C 92.253906 1.453125 74.601562 -2.945312 59.03125 -11.75 C 43.46875 -20.550781 31.332031 -32.785156 22.625 -48.453125 C 13.925781 -64.117188 9.578125 -82.007812 9.578125 -102.125 Z M 9.578125 -102.125 "/></g></g><g style="fill:#5f6fff;fill-opacity:1;"><g transform="translate(925.548859, 386.486958)"><path style="stroke:none" d="M 67.59375 -134.90625 C 73.394531 -143.800781 80.644531 -150.8125 89.34375 -155.9375 C 98.050781 -161.0625 107.722656 -163.625 118.359375 -163.625 L 118.359375 -111.109375 L 104.734375 -111.109375 C 92.347656 -111.109375 83.0625 -108.445312 76.875 -103.125 C 70.6875 -97.8125 67.59375 -88.484375 67.59375 -75.140625 L 67.59375 0 L 17.984375 0 L 17.984375 -161.875 L 67.59375 -161.875 Z M 67.59375 -134.90625 "/></g></g><g style="fill:#5f6fff;fill-opacity:1;"><g transform="translate(1049.701645, 386.486958)"><path style="stroke:none" d="M 8.125 -81.234375 C 8.125 -97.867188 11.265625 -112.46875 17.546875 -125.03125 C 23.835938 -137.601562 32.394531 -147.273438 43.21875 -154.046875 C 54.050781 -160.816406 66.140625 -164.203125 79.484375 -164.203125 C 90.898438 -164.203125 100.910156 -161.878906 109.515625 -157.234375 C 118.117188 -152.597656 124.742188 -146.507812 129.390625 -138.96875 L 129.390625 -161.875 L 179 -161.875 L 179 0 L 129.390625 0 L 129.390625 -22.921875 C 124.554688 -15.378906 117.832031 -9.285156 109.21875 -4.640625 C 100.613281 0.00390625 90.609375 2.328125 79.203125 2.328125 C 66.046875 2.328125 54.050781 -1.101562 43.21875 -7.96875 C 32.394531 -14.84375 23.835938 -24.613281 17.546875 -37.28125 C 11.265625 -49.945312 8.125 -64.597656 8.125 -81.234375 Z M 129.390625 -80.9375 C 129.390625 -93.3125 125.957031 -103.078125 119.09375 -110.234375 C 112.226562 -117.390625 103.863281 -120.96875 94 -120.96875 C 84.132812 -120.96875 75.769531 -117.4375 68.90625 -110.375 C 62.039062 -103.320312 58.609375 -93.609375 58.609375 -81.234375 C 58.609375 -68.847656 62.039062 -59.03125 68.90625 -51.78125 C 75.769531 -44.53125 84.132812 -40.90625 94 -40.90625 C 103.863281 -40.90625 112.226562 -44.484375 119.09375 -51.640625 C 125.957031 -58.796875 129.390625 -68.5625 129.390625 -80.9375 Z M 129.390625 -80.9375 "/></g></g><g style="fill:#5f6fff;fill-opacity:1;"><g transform="translate(1246.663582, 386.486958)"><path style="stroke:none" d="M 99.21875 -120.6875 L 72.53125 -120.6875 L 72.53125 0 L 22.921875 0 L 22.921875 -120.6875 L 4.9375 -120.6875 L 4.9375 -161.875 L 22.921875 -161.875 L 22.921875 -166.515625 C 22.921875 -186.441406 28.625 -201.578125 40.03125 -211.921875 C 51.445312 -222.273438 68.175781 -227.453125 90.21875 -227.453125 C 93.894531 -227.453125 96.601562 -227.351562 98.34375 -227.15625 L 98.34375 -185.09375 C 88.863281 -185.664062 82.191406 -184.304688 78.328125 -181.015625 C 74.460938 -177.734375 72.53125 -171.835938 72.53125 -163.328125 L 72.53125 -161.875 L 99.21875 -161.875 Z M 99.21875 -120.6875 "/></g></g><g style="fill:#5f6fff;fill-opacity:1;"><g transform="translate(1351.091182, 386.486958)"><path style="stroke:none" d="M 108.203125 -42.0625 L 108.203125 0 L 82.96875 0 C 64.976562 0 50.953125 -4.398438 40.890625 -13.203125 C 30.835938 -22.003906 25.8125 -36.363281 25.8125 -56.28125 L 25.8125 -120.6875 L 6.09375 -120.6875 L 6.09375 -161.875 L 25.8125 -161.875 L 25.8125 -201.328125 L 75.421875 -201.328125 L 75.421875 -161.875 L 107.921875 -161.875 L 107.921875 -120.6875 L 75.421875 -120.6875 L 75.421875 -55.703125 C 75.421875 -50.867188 76.582031 -47.382812 78.90625 -45.25 C 81.226562 -43.125 85.097656 -42.0625 90.515625 -42.0625 Z M 108.203125 -42.0625 "/></g></g><g style="fill:#5f6fff;fill-opacity:1;"><g transform="translate(1468.862225, 386.486958)"><path style="stroke:none" d="M 67.59375 -214.6875 L 67.59375 0 L 17.984375 0 L 17.984375 -214.6875 Z M 67.59375 -214.6875 "/></g></g><g style="fill:#5f6fff;fill-opacity:1;"><g transform="translate(1554.434767, 386.486958)"><path style="stroke:none" d="M 183.34375 -161.875 L 81.8125 76.875 L 28.4375 76.875 L 65.5625 -5.515625 L -0.296875 -161.875 L 55.125 -161.875 L 92.546875 -60.640625 L 129.671875 -161.875 Z M 183.34375 -161.875 "/></g></g><g style="fill:#5f6fff;fill-opacity:1;"><g transform="translate(1737.763188, 386.486958)"><path style="stroke:none" d="M 144.765625 -35.96875 L 68.75 -35.96875 L 56.578125 0 L 4.640625 0 L 78.328125 -203.65625 L 135.765625 -203.65625 L 209.453125 0 L 156.953125 0 Z M 132 -74.265625 L 106.765625 -148.828125 L 81.8125 -74.265625 Z M 132 -74.265625 "/></g></g><g style="fill:#5f6fff;fill-opacity:1;"><g transform="translate(1951.549599, 386.486958)"><path style="stroke:none" d="M 67.59375 -203.65625 L 67.59375 0 L 17.984375 0 L 17.984375 -203.65625 Z M 67.59375 -203.65625 "/></g></g></g></svg>